<?xml version="1.0" standalone="no"?><!DOCTYPE svg PUBLIC "-//W3C//DTD SVG 1.1//EN" "http://www.w3.org/Graphics/SVG/1.1/DTD/svg11.dtd"><svg t="1578556922190" class="icon" viewBox="0 0 1024 1024" version="1.1" xmlns="http://www.w3.org/2000/svg" p-id="1114" width="32" height="32" xmlns:xlink="http://www.w3.org/1999/xlink"><defs><style type="text/css"></style></defs><path d="M671.359336 539.944417c85.034312-51.711785 142.079408-142.804738 142.079408-247.380303C813.353411 130.986121 678.399307 0 511.744001 0 345.302028 0 210.305257 130.986121 210.305257 292.564114c0 104.532898 56.959763 195.668518 142.036742 247.380303-191.913867 64.426398-330.579956 239.359003-330.579956 447.486135A37.119845 37.119845 0 0 0 59.436552 1023.995733h904.785564a37.119845 37.119845 0 0 0 37.674509-36.565181c0-208.084466-138.666089-383.017071-330.537289-447.486135z m-385.70506-247.380303c0-121.172828 101.247578-219.433752 226.132392-219.433752 124.927479 0 226.217724 98.260924 226.217724 219.433752S636.714147 511.997867 511.829334 511.997867c-124.927479 0-226.175058-98.260924-226.175058-219.433753z m226.132392 292.564115c216.105766 0 391.593035 160.980663 410.878288 365.737142H100.951046c19.327919-204.799147 194.815188-365.737143 410.878288-365.737142z" p-id="1115" fill="#ffffff"></path></svg>